<?xml version="1.0" encoding="UTF-8"?>
<svg version="1.1" viewBox="0 0 2048 1152" width="1024" height="576" xmlns="http://www.w3.org/2000/svg">
<path transform="translate(0)" d="m0 0h2048v1152h-2048z" fill="#F2F8FB"/>
<path transform="translate(813,873)" d="m0 0h26v2l-10 2-22 4-24 7-12 5-8 7-1 2v8l6 5 14 6 22 5 36 5 36 3 38 2 39 1h59l41-1 60-3 48-4 48-6 28-5 25-6 16-6 11-6 4-5v-9l-1-6 5 3 7 8v7l-6 9-13 9-15 8-24 9-24 7-27 6-38 6-35 4-38 3-56 3h-132l-51-3-34-3-31-4-31-6-20-6-16-8-6-7-1-2 1-9 6-8 11-8 16-8 13-5 27-7 24-4z" fill="#0298DC"/>
<path transform="translate(1113,146)" d="m0 0 4 1 7 14 4 17 2 15v31l-4 20-5 17-9 19-9 13-12 14-28 28-8 7-15 15-8 7-14 14-8 7-7 7-7 8-9 10-13 17-9 15-7 16-2 7v19l4 17 8 20 12 24 14 24 13 21 12 16v2l-4-2-12-12-7-8-8-8-9-11-11-12-9-11-11-13-12-17-10-14-9-16-6-17-1-4v-12l3-12 8-16 7-11 8-10 9-10 7-8 11-11 11-9 9-8 11-9 14-12 22-18 13-11 11-10 8-7 8-8h2l2-4 11-12 9-13 10-19 5-15 4-16 2-12v-25z" fill="#FE4E3D"/>
<path transform="translate(1210,319)" d="m0 0h2l-1 3-23 15-16 10-17 12-14 10-14 11-10 9-8 7-10 10-9 11-8 13-5 12-1 4v16l5 13 7 12 14 22 12 22 6 14 3 13v10l-3 12-8 16-9 11-10 10-11 9-10 8-10 7-4-1 13-19 7-14 3-9v-11l-3-12-8-13-9-12-7-10-13-21-7-16-5-15-2-11v-20l4-16 7-16 10-14 12-13 11-10 13-10 15-10 15-9 27-14 19-9 21-8 25-8z" fill="#FE4E3D"/>
<path transform="translate(903,810)" d="m0 0h2l-1 5-1 7 4 5 10 4 16 3 24 2h63l35-2 27-3 19-3 8-2h6l21 12 21 10v3l-15 6-31 9-28 6-26 4-19 2-20 1h-31l-26-2-26-4-25-6-20-7-11-6-8-9-2-6 1-8 4-6 9-7 13-6z" fill="#0298DC"/>
<path transform="translate(883,716)" d="m0 0h4l-2 4-4 5-1 2v8l4 5 12 5 16 3 19 2 25 1h15l35-1 46-3 53-6 27-4h7l19 13 14 7-1 2-19 7-27 7-27 5-33 4-27 2h-73l-37-3-27-4-26-5-15-5-10-6-5-6-1-3v-8l5-10 9-8 12-6z" fill="#0298DC"/>
<path transform="translate(902,616)" d="m0 0h15v2l-27 8-26 9-16 8-7 5-1 2v6l8 4 18 4 31 3 20 1h75l61-3 48-4 52-6 44-7 8-1-2 4-21 13-13 7-21 4-49 7-52 5-47 3-38 1h-28l-43-1-40-3-31-4-24-5-15-6-6-7 2-6 9-8 16-8 12-5 30-10 34-8z" fill="#0298DC"/>
<path transform="translate(1341,923)" d="m0 0 1 4-8 13-14 14-16 10-20 9-21 7-35 8-35 6-47 6-53 5-38 2h-46l-38-2-34-3-43-6-35-7-24-6-8-3v-2l19 1 46 4 51 3 25 1h113l50-3 40-4 39-6 28-6 26-7 24-8 21-9 16-9 11-8z" fill="#0298DC"/>
<path transform="translate(1261,607)" d="m0 0h20l16 4 16 8 9 7 10 10 6 10 4 11 1 6v11l-3 14-8 16-8 10-16 16-18 13-15 9-16 8-19 8-15 5-13 3 1-3 16-10 14-10 13-10 10-9 8-7 8-8 9-11 8-12 6-18 1-7v-15l-3-10-6-10-8-7-10-5-12-3-11-1h-16l-10 1 1-3 12-6 13-4z" fill="#0298DC"/>
</svg>
