<?xml version="1.0" encoding="UTF-8"?>
<svg version="1.1" viewBox="0 0 2048 1134" width="702" height="389" xmlns="http://www.w3.org/2000/svg">
<path transform="translate(0)" d="m0 0h2048v1134h-2048z" fill="#FE8300"/>
<path transform="translate(845,222)" d="m0 0h67l2 1 1 14 1 110 1 19 11 1h59v-112l1-32 1-1h64l7 1 1 20 1 114 1 9 7 1 133 1 3 1 1 28v185l-3 4-15 1h-334l-11-1-1-2v-361z" fill="#FEFDFD"/>
<path transform="translate(1178,783)" d="m0 0 3 1 18 53 14 43 13 38 14-41 23-70 6-19 1-4h28v158h-18l-1-140-14 43-23 70-9 27h-16l-4-8-16-47-14-43-12-37-1-2-1 137h-15l-1-157 1-1z" fill="#FEFDFD"/>
<path transform="translate(596,784)" d="m0 0h46l15 3 12 5 9 7 5 8 3 9v17l-4 11-6 8-8 6-9 4-6 2 10 3 8 6 4 5 4 9 6 27 5 24v4h-19l-5-22-6-25-4-11-6-7-9-4-4-1-21-1-1 71h-18l-1-1z" fill="#FEFDFD"/>
<path transform="translate(809,784)" d="m0 0h17l1 67 7-9 7-7 10-4 11-1 13 4 8 6 6 7 5 10 3 13 1 6v23l-3 16-6 12-9 10-10 5-7 2-15 1-12-2-12-6-8-9-4-9-2-8-1-13z" fill="#FEFDFD"/>
<path transform="translate(918,784)" d="m0 0h17l1 67 8-10 8-7 8-3 10-1 11 3 8 4 6 5 6 10 4 12 2 13v24l-3 14-6 12-9 10-9 5-15 3h-9l-10-2-9-4-9-7-5-9-3-8-2-16z" fill="#FEFDFD"/>
<path transform="translate(1379,781)" d="m0 0 13 1 12 4 10 6 7 6 9 14 6 18 3 18v35l-3 16-5 13-6 10-9 9 19-3 10-3h4v17h-72l-15-3-9-4-9-6-7-7-7-12-5-17-2-12v-32l4-20 4-12 7-13 9-11 11-7 13-4zm-2 12-10 3-8 6-6 8-5 11-4 20-1 14v20l3 21 5 15 6 8 7 7 10 4h15l10-4 7-6 6-10 5-16 2-13v-32l-3-20-4-13-4-8-9-10-9-4z" fill="#FEFDFD"/>
<path transform="translate(736,831)" d="m0 0h22l11 4 7 5 4 7 3 10 1 84-1 1h-17l1-14-8 7-8 6-7 3-13 1-8-2-10-6-6-8-2-6v-13l5-10 7-7 12-6 14-3 8-1h15l-1-26-3-9-4-5-8-3h-7l-10 5-3 4-2 12-4 1h-9l-8-1 5-15 5-7 8-5z" fill="#FEFDFD"/>
<path transform="translate(1066,441)" d="m0 0h64l3 1 1 18v21l-1 32-24 1-44-1-3-1-1-10v-60z" fill="#FE8300"/>
<path transform="translate(853,841)" d="m0 0 10 2 7 6 6 13 3 15v23l-3 16-5 9-8 7-7 2h-9l-8-3-8-9-4-13-1-7v-19l3-17 6-14 5-6 8-4z" fill="#FE8300"/>
<path transform="translate(956,842)" d="m0 0h14l8 6 6 10 3 11 1 8v26l-3 13-4 8-9 8-7 2h-8l-10-4-6-7-4-10-2-13v-16l3-18 5-12 9-10z" fill="#FE8300"/>
<path transform="translate(1102,798)" d="m0 0h3l1 34 29 1v10l-29 1v73l2 10 7 5 4 1h15v10l-1 1-7 1h-11l-10-2-10-5-4-5-2-6-1-7-1-76-18-1v-10h19v-26z" fill="#FEFDFD"/>
<path transform="translate(616,796)" d="m0 0h20l14 3 8 5 6 9 2 7v12l-4 11-5 6-8 5-14 4h-19l-1-6v-55z" fill="#FE8300"/>
<path transform="translate(1031,833)" d="m0 0h17l1 109h-18z" fill="#FEFDFD"/>
<path transform="translate(762,891)" d="m0 0h4v20l-3 8-6 8-7 5-3 1h-12l-7-4-4-6-1-3v-9l4-8 8-6 11-4z" fill="#FE8300"/>
<path transform="translate(1030,784)" d="m0 0h19v21h-18l-1-1z" fill="#FEFDFD"/>
</svg>
